<?xml version="1.0" standalone="no"?>
<!DOCTYPE svg PUBLIC "-//W3C//DTD SVG 20010904//EN"
 "http://www.w3.org/TR/2001/REC-SVG-20010904/DTD/svg10.dtd">
<svg version="1.0" xmlns="http://www.w3.org/2000/svg"
 width="1008.000000pt" height="1008.000000pt" viewBox="0 0 1008.000000 1008.000000"
 preserveAspectRatio="xMidYMid meet">
<metadata>
Created by potrace 1.11, written by Peter Selinger 2001-2013
</metadata>
<g transform="translate(0.000000,1008.000000) scale(0.100000,-0.100000)"
fill="#000000" stroke="none">
<path d="M3293 8428 c2 -7 197 -544 432 -1193 235 -649 430 -1186 433 -1193 3
-10 -200 -12 -1012 -10 l-1016 3 -285 600 -285 600 -410 3 c-225 1 -410 -1
-410 -5 0 -6 346 -1144 555 -1828 l74 -239 -181 -276 c-908 -1379 -1178 -1792
-1178 -1800 0 -6 156 -10 415 -10 l416 0 23 25 c12 13 238 285 502 604 l479
581 1003 0 1003 0 -23 -32 c-12 -18 -428 -600 -923 -1293 -495 -693 -911
-1275 -924 -1292 l-22 -33 418 0 418 1 961 787 c528 433 1255 1029 1616 1325
l656 537 1276 0 1275 0 163 61 c370 137 777 316 973 426 264 148 365 249 365
366 0 160 -376 446 -1051 796 l-176 91 -1294 0 -1294 0 -1115 1205 -1114 1205
-374 0 c-295 0 -373 -3 -369 -12z"/>
</g>
</svg>
