<svg id="Layer_1" data-name="Layer 1" xmlns="http://www.w3.org/2000/svg" viewBox="0 0 490.39 156.84"><defs><style>.cls-1,.cls-2{fill:#fff;}.cls-2{stroke:#fff;stroke-miterlimit:10;stroke-width:0.25px;}</style></defs><title>SFLogo white</title><path class="cls-1" d="M48.84,321.13a79.26,79.26,0,0,1-18.55-6.34,78.44,78.44,0,0,1-16.12-10.57l13.42-16.49a60.86,60.86,0,0,0,19.35,11.42A67.35,67.35,0,0,0,69.87,303q16.69,0,25.89-6.18t9.2-17.49v-.11q0-8-4.18-12.74a25,25,0,0,0-10.78-7,120.59,120.59,0,0,0-17.06-4.18,2.61,2.61,0,0,0-.69-.1,2.17,2.17,0,0,1-.69-.11L70,254.76a165.85,165.85,0,0,1-25.11-6,35.42,35.42,0,0,1-16.54-12.16q-6.87-8.82-6.87-25.1v-.11q0-14.26,6.4-24.36t18.65-15.37Q58.78,166.4,76,166.4a73.44,73.44,0,0,1,16.22,1.8A80.79,80.79,0,0,1,108,173.53a90.74,90.74,0,0,1,15.27,8.94L111,199.59a71.73,71.73,0,0,0-17.49-9.67A50.09,50.09,0,0,0,76,186.69q-15.75,0-24.47,6.29t-8.72,17.81v.11q0,7.92,4.5,12.47a27.17,27.17,0,0,0,11.2,6.71,169.83,169.83,0,0,0,18.65,4.49c.28.07.55.12.8.16a6.92,6.92,0,0,1,.79.16l1.16.21,1.16.21a128.15,128.15,0,0,1,23.31,6.76A36.42,36.42,0,0,1,120,254.7q6.28,8.73,6.29,23.84v.21q0,14.06-6.66,24T100.36,318q-12.63,5.24-30.49,5.23A100.78,100.78,0,0,1,48.84,321.13Z" transform="translate(-14.17 -166.4)"/><path class="cls-1" d="M141.21,168h21.56V321.66H141.21Zm10.57,0h86.13v20.5H151.78Zm0,68.48h74.51V257H151.78Z" transform="translate(-14.17 -166.4)"/><path class="cls-1" d="M398.13,238.9v26.85q0,17.12-6.66,30.17a48.13,48.13,0,0,1-18.86,20.19q-12.21,7.13-28.27,7.13-16.29,0-28.59-6.71a47.1,47.1,0,0,1-19.08-19q-6.76-12.26-6.76-28.43V223.79q0-17.11,6.65-30.12a48.26,48.26,0,0,1,18.87-20.14q12.21-7.12,28.27-7.13a53.06,53.06,0,0,1,24.36,5.66,51.56,51.56,0,0,1,18.66,16,59.62,59.62,0,0,1,10.14,24H373.51a33.19,33.19,0,0,0-6.45-13.27,30.83,30.83,0,0,0-10.68-8.45,29.21,29.21,0,0,0-12.68-2.91A30.58,30.58,0,0,0,327,192a29.86,29.86,0,0,0-11.09,12.73A43.78,43.78,0,0,0,312,223.79v45.34a36.1,36.1,0,0,0,4,17.39,28.57,28.57,0,0,0,11.36,11.57,34.06,34.06,0,0,0,17,4.12,32.07,32.07,0,0,0,16.7-4.28,28.25,28.25,0,0,0,11.09-12.42q3.92-8.13,3.91-19.34v-6.66H344.86V238.9Z" transform="translate(-14.17 -166.4)"/><path class="cls-1" d="M434.91,317.64a36.86,36.86,0,0,1-15.48-16.33q-5.34-10.72-5.34-25.84V257.61q0-14.9,5.34-25.52a36.59,36.59,0,0,1,15.48-16.17q10.14-5.55,24.41-5.55t24.42,5.55a36.7,36.7,0,0,1,15.48,16.17q5.34,10.62,5.34,25.52v18.18q0,15-5.34,25.63a37.08,37.08,0,0,1-15.48,16.22q-10.15,5.61-24.42,5.6T434.91,317.64Zm41.9-22q6.19-7.08,6.19-19.87V257.61q0-12.78-6.19-19.76t-17.49-7q-11.31,0-17.49,7t-6.18,19.76v18.18q0,12.78,6.18,19.87t17.49,7.08Q470.63,302.74,476.81,295.66Z" transform="translate(-14.17 -166.4)"/><path class="cls-2" d="M260.66,248.07,252,255.93h-2.25l4.23-7.86h-6.21L245.23,252h-2.31l3-6.26-3-6.26h2.31l2.54,3.91H254l-4.23-7.86H252l8.66,7.86h7.77c2.54.47,4.14,1.46,4.14,2.3v.1c0,.84-1.6,1.83-4.14,2.3h-7.77" transform="translate(-14.17 -166.4)"/></svg>