<svg id="Layer_1" data-name="Layer 1" xmlns="http://www.w3.org/2000/svg" viewBox="0 0 491.58 157.84"><defs><style>.cls-1,.cls-2{stroke:#000;stroke-miterlimit:10;}.cls-2{stroke-width:0.25px;}</style></defs><title>SFLogo black</title><path class="cls-1" d="M49,324.13a79.42,79.42,0,0,1-18.55-6.34,78.38,78.38,0,0,1-16.11-10.57l13.42-16.49a60.82,60.82,0,0,0,19.34,11.42A67.35,67.35,0,0,0,70,306q16.69,0,25.9-6.18t9.19-17.49v-.11q0-8-4.17-12.74a25.07,25.07,0,0,0-10.78-7,119.9,119.9,0,0,0-17.07-4.17,1.92,1.92,0,0,0-.69-.11,2.22,2.22,0,0,1-.69-.11l-1.58-.31a165.38,165.38,0,0,1-25.1-6,35.37,35.37,0,0,1-16.54-12.16q-6.87-8.82-6.87-25.1v-.11q0-14.26,6.39-24.36t18.66-15.37q12.26-5.3,29.48-5.29a73.53,73.53,0,0,1,16.23,1.8,80.7,80.7,0,0,1,15.74,5.33,91.22,91.22,0,0,1,15.28,8.94l-12.26,17.12a71.6,71.6,0,0,0-17.5-9.67,50.09,50.09,0,0,0-17.49-3.23q-15.75,0-24.46,6.29T43,213.79v.11q0,7.92,4.49,12.47a27.23,27.23,0,0,0,11.2,6.71,169.53,169.53,0,0,0,18.66,4.49c.28.07.54.12.79.16a6.92,6.92,0,0,1,.79.16l1.16.21,1.17.21a128,128,0,0,1,23.3,6.76,36.36,36.36,0,0,1,15.64,12.63q6.28,8.73,6.29,23.84v.21q0,14.06-6.66,24T100.53,321Q87.9,326.25,70,326.24A100.78,100.78,0,0,1,49,324.13Z" transform="translate(-13.65 -168.9)"/><path class="cls-1" d="M141.38,171h21.56V324.66H141.38ZM152,171h86.14v20.5H152Zm0,68.48h74.51V260H152Z" transform="translate(-13.65 -168.9)"/><path class="cls-1" d="M398.3,241.9v26.85q0,17.12-6.65,30.17a48.15,48.15,0,0,1-18.87,20.19q-12.21,7.13-28.27,7.13-16.27,0-28.59-6.71a47.1,47.1,0,0,1-19.08-19q-6.76-12.26-6.76-28.43V226.79q0-17.11,6.66-30.12a48.23,48.23,0,0,1,18.86-20.14q12.21-7.12,28.27-7.13a53.13,53.13,0,0,1,24.37,5.66,51.53,51.53,0,0,1,18.65,16,59.78,59.78,0,0,1,10.15,24H373.68a33.19,33.19,0,0,0-6.45-13.27,30.89,30.89,0,0,0-10.67-8.45,29.29,29.29,0,0,0-12.69-2.91A30.55,30.55,0,0,0,327.18,195a29.81,29.81,0,0,0-11.1,12.73,43.78,43.78,0,0,0-3.91,19.08v45.34a36.21,36.21,0,0,0,4,17.39,28.63,28.63,0,0,0,11.36,11.57,34.09,34.09,0,0,0,17,4.12,32,32,0,0,0,16.7-4.28,28.19,28.19,0,0,0,11.09-12.42q3.92-8.13,3.91-19.34v-6.66H345V241.9Z" transform="translate(-13.65 -168.9)"/><path class="cls-1" d="M435.08,320.64a37,37,0,0,1-15.48-16.33q-5.34-10.72-5.34-25.84V260.61q0-14.9,5.34-25.52a36.7,36.7,0,0,1,15.48-16.17q10.16-5.55,24.42-5.55t24.41,5.55a36.7,36.7,0,0,1,15.48,16.17q5.34,10.62,5.34,25.52v18.18q0,15-5.34,25.63a37.08,37.08,0,0,1-15.48,16.22q-10.14,5.61-24.41,5.6T435.08,320.64Zm41.91-22q6.18-7.08,6.18-19.87V260.61q0-12.78-6.18-19.76t-17.49-7q-11.31,0-17.5,7t-6.18,19.76v18.18q0,12.78,6.18,19.87t17.5,7.08Q470.79,305.74,477,298.66Z" transform="translate(-13.65 -168.9)"/><path class="cls-2" d="M260.83,251.07l-8.65,7.86h-2.26l4.23-7.86h-6.21L245.4,255h-2.31l3-6.26-3-6.26h2.31l2.54,3.91h6.21l-4.23-7.86h2.26l8.65,7.86h7.77c2.54.47,4.14,1.46,4.14,2.3v.1c0,.84-1.6,1.83-4.14,2.3h-7.77" transform="translate(-13.65 -168.9)"/></svg>